<?xml version="1.0" standalone="no"?>
<!DOCTYPE svg PUBLIC "-//W3C//DTD SVG 20010904//EN"
 "http://www.w3.org/TR/2001/REC-SVG-20010904/DTD/svg10.dtd">
<svg version="1.0" xmlns="http://www.w3.org/2000/svg"
 width="1080.000000pt" height="1080.000000pt" viewBox="0 0 1080.000000 1080.000000"
 preserveAspectRatio="xMidYMid meet">

<g transform="translate(0.000000,1080.000000) scale(0.100000,-0.100000)"
fill="#000000" stroke="none">
<path d="M5160 10763 c-282 -18 -380 -28 -530 -49 -864 -123 -1687 -460 -2410
-988 -560 -410 -1068 -968 -1432 -1576 -804 -1342 -977 -2998 -468 -4485 374
-1093 1076 -2021 2031 -2683 1140 -790 2557 -1105 3934 -876 756 126 1480 414
2110 838 546 367 1040 853 1411 1386 487 701 802 1509 913 2345 34 256 44 419
44 725 1 472 -44 854 -147 1276 -323 1314 -1118 2444 -2251 3201 -698 465
-1520 763 -2370 857 -276 31 -629 43 -835 29z m-2100 -4973 l5 -1135 173 2
c96 1 179 0 185 -3 9 -3 12 -75 11 -267 l-1 -262 -801 -3 -802 -2 0 265 0 265
68 1 c238 5 299 6 315 8 16 1 17 43 17 741 0 407 -2 740 -5 740 -3 0 -74 -32
-158 -71 -83 -40 -171 -80 -194 -90 -51 -22 -42 -31 -102 118 -22 55 -58 143
-80 195 -23 53 -41 100 -41 105 0 5 49 32 109 61 200 96 338 198 499 370 l96
102 351 -2 350 -3 5 -1135z m2655 1101 c275 -51 466 -170 558 -347 47 -92 67
-187 67 -329 0 -295 -80 -439 -308 -555 -34 -17 -62 -35 -62 -40 0 -5 15 -12
33 -15 54 -12 173 -76 236 -126 162 -131 235 -302 236 -549 0 -201 -39 -346
-128 -473 -39 -56 -151 -157 -174 -157 -6 0 -13 -3 -15 -7 -14 -33 -253 -110
-413 -134 -71 -11 -277 -14 -975 -14 l-885 0 0 255 0 255 115 5 115 5 1 850
c0 467 -1 858 -4 867 -4 16 -17 18 -112 18 -89 0 -109 3 -114 16 -9 22 -7 489
1 498 4 4 390 6 858 3 829 -3 853 -4 970 -26z m3485 -526 l0 -515 -290 0 -290
0 -2 253 -3 252 -162 3 -163 2 0 -860 0 -860 165 0 165 0 -2 -262 -3 -263
-737 -3 -738 -2 0 265 0 265 160 0 160 0 0 860 0 860 -165 0 -165 0 -2 -252
-3 -253 -292 -3 -293 -2 0 515 0 515 1330 0 1330 0 0 -515z"/>
<path d="M4940 6095 l0 -295 151 0 c184 0 228 10 284 64 59 56 79 127 73 250
-6 101 -27 156 -80 208 -60 58 -96 68 -270 68 l-158 0 0 -295z"/>
<path d="M4947 5343 c-4 -3 -7 -158 -7 -344 l0 -339 27 -6 c14 -4 100 -4 190
0 127 5 175 11 217 27 76 28 137 85 172 161 26 57 29 72 27 163 0 70 -6 112
-18 140 -47 109 -118 169 -229 192 -63 13 -367 18 -379 6z"/>
<path d="M3967 4594 c-13 -13 -8 -369 5 -382 9 -9 218 -12 880 -12 477 0 868
4 868 8 0 4 -161 43 -357 86 -197 43 -374 82 -393 87 -39 10 -660 147 -835
184 -60 13 -121 26 -135 30 -14 3 -29 3 -33 -1z"/>
<path d="M7200 4381 l0 -201 678 1 c568 1 671 3 637 14 -48 15 -508 151 -655
193 -257 74 -358 103 -400 117 -25 8 -88 27 -140 41 -52 15 -101 29 -107 31
-10 4 -13 -39 -13 -196z"/>
</g>
</svg>
